<svg viewBox="0 0 160 42" fill="none" xmlns="http://www.w3.org/2000/svg">
<path d="M147.456 22.8838H150.803L151.4 24.5246C151.431 24.6281 151.529 24.6902 151.633 24.6747H152.666C152.77 24.6747 152.806 24.6281 152.806 24.5712C152.801 24.5298 152.785 24.4935 152.769 24.4521L149.915 16.8174C149.884 16.719 149.786 16.6517 149.682 16.6673H148.603C148.499 16.6569 148.405 16.719 148.379 16.8174L145.494 24.4521C145.484 24.4884 145.474 24.5298 145.474 24.5712C145.474 24.6281 145.51 24.6747 145.603 24.6747H146.61C146.714 24.6902 146.818 24.6229 146.843 24.5246L147.456 22.8838ZM150.471 21.8278H147.783L149.132 18.2563L150.471 21.8278Z" fill="#287CEB"/>
<path d="M154.389 16.7037C154.311 16.7089 154.248 16.7761 154.248 16.8538V24.5351C154.248 24.6128 154.311 24.6749 154.389 24.6749H155.421C155.499 24.6749 155.561 24.6128 155.561 24.5351V16.8538C155.561 16.7761 155.499 16.7089 155.421 16.7037H154.389Z" fill="#287CEB"/>
<path d="M150.668 12.1226C145.941 12.1226 142.106 15.9477 142.106 20.6631C142.106 22.9303 143.009 25.0991 144.612 26.7037C147.933 30.063 153.356 30.0992 156.718 26.7865C160.086 23.4738 160.123 18.0647 156.801 14.7106C156.776 14.6847 156.75 14.6589 156.718 14.6278C155.115 13.0232 152.936 12.1226 150.663 12.1277M150.663 11.3513C155.821 11.3513 160.003 15.5233 160.003 20.6683C160.003 25.8134 155.821 29.9853 150.663 29.9853C145.505 29.9853 141.322 25.8134 141.322 20.6683C141.322 15.5233 145.505 11.3513 150.663 11.3513Z" fill="#287CEB"/>
<path d="M40.9961 30.0077V41.9947H35.0197V13.9714H40.9961V18.482C41.9263 15.567 44.9212 13.9795 48.0424 13.9795C48.6392 13.9795 48.986 13.9661 49.5721 13.9714C49.0559 15.8539 48.7199 17.1599 48.244 18.9432H47.7789C41.4692 18.9432 40.9961 26.6395 40.9961 30.005V30.0077Z" fill="#287CEB"/>
<path d="M65.8827 41.9973C58.9762 41.9973 56.6534 38.7525 56.6534 31.268V18.9485H51.8062L53.1342 13.9821H56.6534V8.41769L62.6969 7.09296V13.9821H71.5875L70.3938 18.9485H62.6969V31.4021C62.6969 36.567 63.9578 37.3634 70.1331 36.8995L68.9367 42H65.8827V41.9973Z" fill="#287CEB"/>
<path d="M74.1818 13.9714H80.2227V41.9973H74.1818V13.9714Z" fill="#287CEB"/>
<path d="M102.507 13.9714H108.548V41.9973H102.507V13.9714Z" fill="#287CEB"/>
<path d="M98.4958 18.8788H93.783V42H87.8067V18.8788H82.9595L84.2875 13.9768H87.7395V8.87626C87.7395 1.06193 91.1914 0 95.5735 0C96.5682 0 98.0307 0.131401 99.6895 0.463925L98.8937 5.43034C97.7 5.1005 96.8344 5.03346 96.3047 5.03346C94.1809 5.03346 93.7803 6.48959 93.7803 10.134V13.9768H99.555L98.4931 18.8788H98.4958Z" fill="#287CEB"/>
<path d="M112.769 27.6907C112.769 18.6831 118.944 13.3171 127.377 13.3171C132.623 13.3171 136.341 15.8995 136.873 16.232L135.612 21.531C135.612 21.531 132.093 18.616 127.445 18.616C122.53 18.616 118.68 21.7965 118.68 27.6237C118.68 33.4509 122.398 36.8298 127.38 36.8298C131.695 36.8298 134.685 34.3117 135.082 33.9819L137.806 38.8169C134.155 41.1338 130.767 41.9973 127.38 41.9973C118.947 41.9973 112.771 36.567 112.771 27.6907H112.769Z" fill="#287CEB"/>
<path d="M28.0514 36.6743C28.5595 30.0399 28.5837 23.3787 28.1213 16.7389L28.0541 15.7735C28.0541 15.7735 18.6446 11.8207 10.617 13.8642C8.98784 14.2798 7.39361 15.0736 5.95531 16.1328C4.53852 17.1304 3.32873 18.3827 2.37166 19.8228C0.927981 21.9118 0.0300519 24.336 0.0300519 26.7924C-0.0264047 27.68 -0.00489745 28.5891 0.108016 29.5089C1.06509 37.2803 7.97968 42.8287 15.6148 41.8928C17.6902 41.638 21.2174 40.0907 22.8762 39.0449L22.9192 39.0207C23.2015 39.549 24.9274 40.6753 26.6588 41.2626C28.1213 41.7292 29.6429 41.9786 31.178 41.9973C31.178 41.9973 28.5218 39.1253 28.046 36.677L28.0514 36.6743ZM21.8277 33.6842C21.8277 33.6842 19.3597 35.9663 15.1793 36.4007C11.3536 36.7976 6.00101 33.9363 6.00101 27.6023C6.00101 22.7619 9.77554 19.6056 12.9156 19.0719C17.4321 18.3023 21.8277 19.8389 21.8277 19.8389C22.2901 24.4084 22.2928 29.0128 21.8384 33.5823L21.8277 33.6842Z" fill="#287CEB"/>
</svg>
