<svg id="Logo" xmlns="http://www.w3.org/2000/svg" width="202.598" height="54.008" viewBox="0 0 202.598 54.008">
  <g id="Laag_6" data-name="Laag 6">
    <g id="Group_7475" data-name="Group 7475">
      <path id="Path_15160" data-name="Path 15160" d="M138.189,71.1V86.468H130.58V50.975h7.609v5.35c1.185-3.737,4.99-5.945,8.965-5.945a16.051,16.051,0,0,1,2.031.086c-.507,2.462-.678,4.415-1.271,6.877h-.592C139.289,57.342,138.189,63.628,138.189,71.1Z" transform="translate(-85.858 -33.055)" fill="#fff"/>
      <path id="Path_15161" data-name="Path 15161" d="M213.321,71.662c-8.8,0-11.757-4.16-11.757-13.756v-15.8H195.39l1.692-6.368h4.483V28.609l7.695-1.7v8.833h8.794v6.368h-8.794V58.074c0,6.622,1.606,7.643,9.472,7.048l-1.524,6.54h-3.89Z" transform="translate(-128.474 -17.654)" fill="#fff"/>
      <path id="Path_15162" data-name="Path 15162" d="M278.62,52.11h7.7V87.6h-7.7Z" transform="translate(-183.201 -34.19)" fill="#fff"/>
      <path id="Path_15163" data-name="Path 15163" d="M381.22,52.11h7.695V87.6H381.22Z" transform="translate(-250.665 -34.19)" fill="#fff"/>
      <path id="Path_15164" data-name="Path 15164" d="M331.327,24.192h-6V53.4h-7.613V24.192H311.54l1.692-6.285h4.4v-6.54c0-10.019,4.4-11.377,9.979-11.377a27.884,27.884,0,0,1,5.243.595l-1.014,6.368a12.377,12.377,0,0,0-3.3-.509c-2.705,0-3.212,1.867-3.212,6.54v4.924h7.356" transform="translate(-204.847 0.01)" fill="#fff"/>
      <path id="Path_15165" data-name="Path 15165" d="M419.39,68.556c0-11.549,7.866-18.426,18.606-18.426a22.282,22.282,0,0,1,12.092,3.737l-1.606,6.794a17.939,17.939,0,0,0-10.4-3.737c-6.257,0-11.164,4.074-11.164,11.549s4.736,11.8,11.078,11.8a15.779,15.779,0,0,0,9.811-3.651l3.469,6.2A23.881,23.881,0,0,1,438,86.9c-10.739,0-18.606-6.962-18.606-18.34Z" transform="translate(-275.764 -32.891)" fill="#fff"/>
      <path id="Path_15166" data-name="Path 15166" d="M35.128,79.491h0a173.969,173.969,0,0,0,.089-25.137l-.086-1.217S23.344,48.154,13.29,50.73A16.984,16.984,0,0,0,7.451,53.59a17.549,17.549,0,0,0-4.49,4.652A15.715,15.715,0,0,0,.026,67.03h0a18.273,18.273,0,0,0,.1,3.425A17.593,17.593,0,0,0,19.553,86.072a28.626,28.626,0,0,0,9.1-3.593l.055-.031c.353.664,2.517,2.087,4.685,2.826a19.44,19.44,0,0,0,5.664.928h0s-3.329-3.62-3.925-6.712Zm-7.8-3.772A15.354,15.354,0,0,1,19,79.143a10.705,10.705,0,0,1-11.5-11.092,10.978,10.978,0,0,1,8.661-10.758,25.107,25.107,0,0,1,11.164.966h0a87.466,87.466,0,0,1,.014,17.329l-.014.127Z" transform="translate(0.012 -32.799)" fill="#fff"/>
    </g>
  </g>
  <g id="Group_7537" data-name="Group 7537" transform="translate(179.875 14.785)">
    <g id="Group_7478" data-name="Group 7478" transform="translate(5.042 6.516)">
      <path id="Path_15171" data-name="Path 15171" d="M-43.5-42.321h4.069l.728,2.007a.259.259,0,0,0,.286.186h1.256c.128,0,.171-.057.171-.129a.547.547,0,0,0-.043-.143l-3.469-9.345a.269.269,0,0,0-.286-.186h-1.313a.252.252,0,0,0-.271.186L-45.888-40.4a.633.633,0,0,0-.029.143c0,.072.043.129.157.129h1.228a.259.259,0,0,0,.286-.186Zm3.669-1.29H-43.1l1.642-4.372Z" transform="translate(45.917 49.932)" fill="#fff"/>
      <path id="Path_15170" data-name="Path 15170" d="M-13.188-49.713a.187.187,0,0,0-.171.186v9.4a.174.174,0,0,0,.171.172h1.256a.174.174,0,0,0,.171-.172v-9.4a.187.187,0,0,0-.171-.186Z" transform="translate(24.028 49.756)" fill="#fff"/>
    </g>
    <path id="Ellipse_230" data-name="Ellipse 230" d="M11.361.951A10.435,10.435,0,0,0,.947,11.407,10.415,10.415,0,1,0,18.726,4.013,10.326,10.326,0,0,0,11.361.951m0-.951A11.407,11.407,0,1,1,0,11.407,11.384,11.384,0,0,1,11.361,0Z" transform="translate(0 0)" fill="#fff"/>
  </g>
</svg>
