<?xml version="1.0" encoding="UTF-8" standalone="yes"?>
<svg width="642" height="96" viewBox="0 0 214 32" fill="none" xmlns="http://www.w3.org/2000/svg">
  <g id="brand-logo--nlnl">
    <g id="Marktplaats Logo">
      <g id="Logo">
        <g id="Group">
          <path id="Vector" d="M42.3749 5.28919V7.96422L44.0163 8.08581L43.0436 21.9473C42.922 22.7377 42.8004 22.92 42.1925 23.0416L41.2197 23.1632V25.7167H48.576V23.0416L47.0561 22.92L47.6641 11.8552H47.7249L52.0414 23.4672H55.2636L59.7017 11.6728H59.8233L60.3705 21.8865C60.4313 22.6769 60.2489 22.8592 59.7017 22.92L58.729 23.0416V25.5951H66.0853V22.92L64.5046 22.7985L63.5319 8.87616C63.4103 8.2074 63.7751 7.96421 64.3222 7.84262L65.2342 7.72103V5.1676H58.4858L53.7437 18.1172H53.6221L49.1232 5.1676H42.3749V5.28919ZM81.8315 10.8216C79.4604 9.90969 77.211 9.7273 76.1775 9.7273C70.5842 9.7273 67.9092 13.1927 67.9092 18.6035C67.9092 22.7985 69.4899 26.0814 74.0496 26.0814C75.9951 26.0814 77.3934 25.2303 78.1229 24.136L78.2445 24.1968L78.3661 25.7167H83.3514V23.2848L82.5002 23.224C81.9531 23.224 81.8315 22.9808 81.8315 22.3729V10.8216ZM77.5758 20.549C77.5758 21.7649 76.6638 22.92 74.9615 22.92C72.7729 22.92 72.1649 20.7314 72.1649 18.3603C72.1649 15.4421 72.9553 12.8887 75.6303 12.8887C76.4206 12.8887 77.1502 13.0711 77.515 13.1927V20.549H77.5758ZM93.3219 13.1319C93.6867 13.1319 93.9299 13.1927 94.1123 13.2535C94.3555 13.3751 94.4163 13.4967 94.4163 13.983V15.9893L97.8816 15.7461V10.2137C97.0305 9.84889 95.9362 9.6665 95.0242 9.6665C92.4708 9.6665 91.1333 11.1864 90.6469 12.4023H90.5861V10.0313H84.9321V12.5847L85.9656 12.7063C86.5128 12.7671 86.6952 12.9495 86.6952 13.5575V22.0689C86.6952 22.7985 86.5736 22.9808 85.9656 23.1024L84.9929 23.224V25.6559H93.5043V23.1024L90.9509 22.9808V15.9893C90.9509 14.3478 91.8628 13.1319 93.3219 13.1319ZM105.299 19.2115C105.968 19.0899 106.515 19.0291 107.123 18.7859L110.102 25.6559H115.269V23.1024L113.628 22.9808L110.831 16.962C112.29 15.7461 113.141 14.2262 113.385 12.7671L114.783 12.5847V10.0921H107.974V12.5847L108.764 12.7063C109.19 12.8279 109.433 12.8887 109.433 13.3143C109.433 14.7126 107.244 16.0501 105.36 16.2933V3.76929H99.3407V6.32272L100.374 6.44431C100.982 6.50511 101.104 6.6875 101.104 7.35626V22.1905C101.104 22.92 100.921 23.0416 100.374 23.1632L99.4015 23.2848V25.7167H106.758V23.1632L105.36 23.0416V19.2115H105.299ZM115.877 13.0711H117.944V20.6098C117.944 23.224 118.188 26.0814 122.99 26.0814C124.571 26.0814 126.091 25.6559 126.942 25.1087L126.213 22.1905C125.726 22.4945 124.997 22.7377 124.146 22.7377C122.93 22.7377 122.261 22.2513 122.261 20.4274V13.0711H125.909L126.091 10.0921H122.322V6.56591H119.951C119.282 8.38979 118.492 10.0313 116.242 10.4569L115.877 13.0711ZM129.921 28.4525C129.921 29.2428 129.739 29.3644 129.192 29.4252L128.219 29.5468V31.9787H136.852V29.4252L134.177 29.2428V25.2303C135.028 25.7167 136.122 26.0206 137.277 26.0206C141.594 26.0206 143.843 22.7377 143.843 17.3268C143.843 12.4023 141.898 9.60571 138.311 9.60571C136.609 9.60571 134.846 10.2137 133.934 11.916H133.873V10.0313H128.158V12.5847L129.192 12.6455C129.678 12.7063 129.921 12.9495 129.921 13.5575V28.4525ZM134.238 15.3813C134.238 14.4086 135.028 13.0103 136.852 13.0103C139.101 13.0103 139.588 15.4421 139.588 17.9956C139.588 20.7922 138.858 22.9808 136.548 22.9808C135.758 22.9808 134.906 22.6769 134.298 22.2513V15.3813H134.238ZM151.565 3.76929H145.546V6.32272L146.579 6.44431C147.187 6.50511 147.309 6.6875 147.309 7.35626V22.1297C147.309 22.92 147.187 23.0416 146.579 23.1024L145.607 23.224V25.6559H153.206V23.1024L151.625 22.9808V3.76929H151.565ZM168.709 10.8216C166.338 9.90969 164.149 9.7273 163.055 9.7273C157.462 9.7273 154.787 13.1927 154.787 18.6035C154.787 22.7985 156.367 26.0814 160.927 26.0814C162.873 26.0814 164.271 25.2303 165 24.136L165.122 24.1968L165.244 25.7167H170.229V23.2848L169.378 23.224C168.831 23.224 168.709 22.9808 168.709 22.3729V10.8216ZM164.453 20.549C164.453 21.7649 163.541 22.92 161.839 22.92C159.65 22.92 159.042 20.7314 159.042 18.3603C159.042 15.4421 159.833 12.8887 162.508 12.8887C163.298 12.8887 164.028 13.0711 164.393 13.1927V20.549H164.453ZM185.975 10.8216C183.604 9.90969 181.415 9.7273 180.321 9.7273C174.728 9.7273 172.053 13.1927 172.053 18.6035C172.053 22.7985 173.634 26.0814 178.193 26.0814C180.139 26.0814 181.537 25.2303 182.267 24.136L182.388 24.1968L182.51 25.7167H187.495V23.2848L186.644 23.224C186.097 23.224 185.975 22.9808 185.975 22.3729V10.8216ZM181.719 20.549C181.719 21.7649 180.807 22.92 179.105 22.92C176.917 22.92 176.309 20.7314 176.309 18.3603C176.309 15.4421 177.099 12.8887 179.774 12.8887C180.564 12.8887 181.294 13.0711 181.659 13.1927V20.549H181.719ZM188.589 13.0711H190.656V20.6098C190.656 23.224 190.9 26.0814 195.702 26.0814C197.283 26.0814 198.803 25.6559 199.654 25.1087L198.925 22.1905C198.438 22.4945 197.709 22.7377 196.858 22.7377C195.642 22.7377 194.973 22.2513 194.973 20.4274V13.0711H198.621L198.803 10.0921H194.973V6.56591H192.602C191.933 8.38979 191.143 10.0313 188.893 10.4569L188.589 13.0711ZM209.442 12.8279C209.807 12.9495 209.868 13.1927 209.868 13.679V14.9558L212.908 14.7126V10.8824C211.57 10.1529 209.686 9.7881 207.983 9.7881C204.275 9.7881 201.539 11.5512 201.539 14.8342C201.539 18.1172 203.91 18.8467 206.099 19.4547C207.801 19.8802 209.017 20.1842 209.017 21.4609C209.017 22.7377 208.044 23.224 206.585 23.224C205.977 23.224 205.308 23.1024 204.943 22.92C204.579 22.7985 204.457 22.6161 204.457 22.1297V20.7314L201.357 20.9746V25.0479C202.572 25.7167 204.943 26.0814 206.828 26.0814C210.78 26.0814 213.333 24.1968 213.333 20.9138C213.333 17.7524 210.901 17.0228 208.652 16.3541C207.011 15.8677 205.673 15.6245 205.673 14.2262C205.673 13.1319 206.585 12.6455 207.801 12.6455C208.409 12.6455 208.956 12.6455 209.442 12.8279Z" fill="#2D3C4D"/>
        </g>
      </g>
      <g id="Coin">
        <path id="Vector_2" fill-rule="evenodd" clip-rule="evenodd" d="M15.8678 0C24.6224 0 31.7355 7.05234 31.7355 15.807C31.7355 24.5008 24.6224 31.6139 15.8678 31.6139C7.11314 31.6139 0 24.5616 0 15.807C0 7.05234 7.11314 0 15.8678 0Z" fill="#EDA566"/>
        <path id="Vector_3" fill-rule="evenodd" clip-rule="evenodd" d="M21.2178 12.0376L14.7126 5.77563C13.4967 6.93076 13.4967 8.81544 14.7126 9.97056L19.0292 14.1047L12.5848 20.4275C13.8007 21.5826 15.7462 21.5826 16.9013 20.4275L21.2178 16.2933C22.3729 15.0774 22.3729 13.1928 21.2178 12.0376Z" fill="#2D3C4D"/>
        <path id="Vector_4" fill-rule="evenodd" clip-rule="evenodd" d="M18.9075 25.3521C20.6098 25.3521 21.9474 24.0145 21.9474 22.373H17.3876H12.8887C11.1865 22.373 9.84894 23.7106 9.84894 25.3521H14.4086H18.9075Z" fill="#2D3C4D"/>
      </g>
    </g>
  </g>
</svg>