<svg version="1.1" id="Laag_1" xmlns="http://www.w3.org/2000/svg" xmlns:xlink="http://www.w3.org/1999/xlink" x="0px" y="0px" style="enable-background:new 0 0 1190.6 841.9;" xml:space="preserve" viewBox="261.6 305.5 667.4 230.82"><style type="text/css">	.st0{fill:#1361FF;}</style><g>	<path class="st0" d="M306.1,524.5c-13.9-7.9-24.8-18.7-32.7-32.3c-7.9-13.7-11.8-29.1-11.8-46.2c0-17.2,3.9-32.5,11.8-46.2   c7.9-13.7,18.8-24.5,32.7-32.3c13.9-7.9,29.5-11.8,46.9-11.8c17.4,0,33.4,3.9,47.3,11.8c13.9,7.9,24.8,18.7,32.7,32.3   c7.9,13.7,11.8,29.1,11.8,46.2c0,17.2-3.9,32.5-11.8,46.2c-7.9,13.7-18.8,24.5-32.7,32.3c-13.9,7.9-29.5,11.8-46.9,11.8   C336,536.3,320,532.4,306.1,524.5z M378.5,492.7c7.3-4.5,13-10.8,17-18.9c4.1-8.1,6.1-17.4,6.1-27.8c0-10.4-2-19.7-6.1-27.8   c-4.1-8.1-9.8-14.4-17.2-18.9c-7.4-4.5-15.8-6.8-25-6.8c-9.2,0-17.9,2.2-25.4,6.8c-7.4,4.5-13.1,10.8-17.2,18.9   c-4.1,8.1-6.1,17.4-6.1,27.8c0,10.4,2,19.7,6.1,27.8c4.1,8.1,9.8,14.4,17.2,18.9c7.4,4.5,15.9,6.8,25.4,6.8   C362.9,499.5,371.3,497.2,378.5,492.7L378.5,492.7z"></path>	<path class="st0" d="M505,524.5c-13.9-7.9-24.8-18.7-32.7-32.3c-7.9-13.7-11.8-29.1-11.8-46.2c0-17.2,3.9-32.5,11.8-46.2   c7.9-13.7,18.8-24.5,32.7-32.3c13.9-7.9,29.5-11.8,46.9-11.8c17.4,0,33.4,3.9,47.3,11.8c13.9,7.9,24.8,18.7,32.7,32.3   c7.9,13.7,11.8,29.1,11.8,46.2c0,17.2-3.9,32.5-11.8,46.2c-7.9,13.7-18.8,24.5-32.7,32.3c-13.9,7.9-29.5,11.8-46.9,11.8   C534.9,536.3,518.9,532.4,505,524.5z M577.4,492.7c7.3-4.5,13-10.8,17-18.9c4.1-8.1,6.1-17.4,6.1-27.8c0-10.4-2-19.7-6.1-27.8   c-4.1-8.1-9.8-14.4-17.2-18.9c-7.4-4.5-15.8-6.8-25-6.8c-9.2,0-17.9,2.2-25.4,6.8c-7.4,4.5-13.1,10.8-17.2,18.9   c-4.1,8.1-6.1,17.4-6.1,27.8c0,10.4,2,19.7,6.1,27.8c4.1,8.1,9.8,14.4,17.2,18.9c7.4,4.5,15.9,6.8,25.4,6.8   S570.2,497.2,577.4,492.7L577.4,492.7z"></path>	<path class="st0" d="M691.6,528.8c-10.6-5-19.1-12-25.4-21.2c-6.3-9.2-9.7-19.9-10.4-32.1h37.6c0.9,8.8,4.5,15.6,10.8,20.5   c6.2,4.9,14.4,7.3,24.3,7.3c8.3,0,15.2-1.9,20.7-5.6s8.2-8.4,8.2-14.2c0-5.3-1.6-9.5-4.9-12.5c-3.2-3-7.2-5.2-11.8-6.6   c-4.7-1.4-11.5-2.8-20.5-4.2c-12.3-2.1-22.4-4.5-30.3-7.1c-7.9-2.6-14.7-7.6-20.5-14.8c-5.8-7.2-8.7-17.5-8.7-30.9   c0-10.2,2.6-19.2,8-26.9c5.3-7.8,12.7-13.8,22.2-18.3c9.5-4.4,20.3-6.6,32.3-6.6c13.5,0,25.4,2.3,35.8,6.9   c10.4,4.7,18.7,11.2,24.7,19.6c6,8.4,9.4,18.3,10.1,29.4h-37.6c-1.1-7.9-4.9-14-11.1-18.4c-6.3-4.4-13.3-6.6-21.2-6.6   c-7.8,0-14.2,1.7-18.9,5.2c-4.7,3.5-7.1,8.2-7.1,14.2c0,5.1,1.5,9,4.5,11.8c3,2.8,6.9,4.7,11.6,5.9c4.7,1.1,11.3,2.3,19.6,3.5   c13,1.6,23.5,3.8,31.6,6.4c8.1,2.7,15.2,7.8,21.2,15.5c6,7.7,9,18.7,9,33c0,10.9-2.8,20.4-8.3,28.7c-5.6,8.2-13.5,14.6-23.6,18.9   c-10.2,4.4-21.9,6.6-35.1,6.6C714.6,536.4,702.3,533.9,691.6,528.8L691.6,528.8z"></path>	<path class="st0" d="M854.6,517.3c-11.4-10.8-17-25.8-17-45v-78.2h-34.4v-35.8h23.3c7.4,0,11.1-3.8,11.1-11.5v-41.3h42.8v52.8H929   v35.8h-48.7v76.4c0,8.8,2.2,15.5,6.6,20.2c4.4,4.7,10.6,6.9,18.8,6.9h23.3v35.8h-28.2C881.3,533.5,865.9,528.1,854.6,517.3   L854.6,517.3z"></path></g></svg>