<?xml version="1.0" encoding="UTF-8"?>
<svg width="63px" height="80px" viewBox="0 0 63 80" version="1.1" xmlns="http://www.w3.org/2000/svg" xmlns:xlink="http://www.w3.org/1999/xlink">
    <title>FC Twente - FC Twente-0 (2)</title>
    <g id="Symbols" stroke="none" stroke-width="1" fill="none" fill-rule="evenodd">
        <g id="component-/-header-/-home" transform="translate(-689.000000, -24.000000)" fill-rule="nonzero">
            <g id="FC-Twente---FC-Twente-0-(2)" transform="translate(689.000000, 23.997476)">
                <path d="M31.2827,2.57552441 C24.8876946,2.51309051 18.5310177,3.56925952 12.4998,5.69632441 C9.3128321,6.73873787 6.02420318,7.43986688 2.6892,7.78792441 L3.4445,20.7193244 C5.1045,22.2382244 5.1045,22.9188244 5.3369,25.6993244 C5.5693,28.4798244 6.9969,52.8984244 6.9969,52.8984244 C7.3704,61.6466244 7.1712,65.5476244 10.3916,68.7929244 C13.3381,71.7560244 17.9446,72.1710244 17.9446,72.1710244 C20.2997344,72.2586819 22.6392355,72.5924989 24.9249,73.1670244 C27.8963,73.9970244 30.4361,77.2589244 30.4361,77.2589244 L32.4696,77.2589244 C32.4696,77.2589244 34.9596,73.9804244 37.9559,73.1670244 C40.2416231,72.592797 42.5810928,72.2589844 44.9362,72.1710244 C44.9362,72.1710244 49.5427,71.7560244 52.4809,68.7929244 C55.7096,65.5393244 55.5021,61.6466244 55.8756,52.8984244 C55.8756,52.8984244 57.3364,28.4134244 57.5356,25.6993244 C57.7846,22.8358244 57.7265,22.2714244 59.4197,20.7193244 L60.175,7.78792441 C56.8652548,7.43455 53.6019457,6.73348104 50.4391,5.69632441 C44.4105918,3.56988287 38.0567487,2.51371797 31.6645,2.57552441 L31.2827,2.57552441 Z" id="Path" fill="#E30621"></path>
                <path d="M13.3381,8.11992441 C19.100462,6.08924006 25.1732836,5.0808483 31.2827,5.14022441 L31.6645,5.14022441 C37.7739296,5.08067795 43.8467806,6.08907457 49.6091,8.11992441 C52.203438,8.99057604 54.8698848,9.62941224 57.5771,10.0289244 C57.4111,12.9090244 57.0957,18.2293244 57.021,19.5822244 C55.5104,21.2007244 55.361,22.5038244 55.1286,24.9108244 L55.0788,25.4420244 C54.8381,28.1561244 53.4188,51.7115244 53.3773,52.7158244 L53.2777,55.0398244 C53.0038,62.0450244 52.871,64.7508244 50.7213,66.9171244 C48.5716,69.0834244 45.0441,69.5482244 44.82,69.5731244 C42.2986956,69.6718946 39.7948426,70.0363443 37.35,70.6604244 C35.1105363,71.4153461 33.10755,72.7430399 31.54,74.5116244 C29.9568588,72.7417315 27.9402257,71.4144723 25.6885,70.6604244 C23.2436937,70.0361623 20.7398214,69.6717098 18.2185,69.5731244 C17.9612,69.5731244 14.442,69.1166244 12.284,66.9420244 C10.126,64.7674244 9.96,62.0533244 9.6695,55.0398244 L9.5782,52.7822244 C9.5118,51.7198244 8.1174,28.1561244 7.8684,25.4337244 L7.8186,24.8693244 C7.6277,22.6698244 7.47,21.2920244 5.9262,19.5822244 C5.8432,18.2376244 5.5361,12.9422244 5.3701,10.0289244 C8.07731521,9.62941224 10.743762,8.99057604 13.3381,8.11992441 Z M31.2827,0.00252440628 C24.6050344,-0.0601245138 17.9677177,1.04375423 11.6698,3.26442441 C8.68690027,4.24037585 5.61031007,4.9024269 2.49,5.23982441 L0,5.45562441 L0.1411,7.94562441 L0.9711,21.9394244 L1.8011,22.6449244 C2.6311,23.3753244 2.6311,23.3753244 2.7888,25.3258244 L2.8386,25.9068244 C3.0793,28.5462244 4.4986,52.7739244 4.4986,53.0229244 C4.4986,53.0229244 4.5899,55.2224244 4.5899,55.2224244 C4.8721,62.4683244 5.0049,66.9254244 8.6403,70.5857244 C12.2757,74.2460244 17.5379,74.6859244 17.7703,74.7357244 L17.928,74.7357244 C20.0812064,74.8208128 22.2199871,75.1267502 24.3107,75.6487244 C26.0454,76.1218244 27.9544,78.1387244 28.4607,78.8442244 L29.2243,79.8153244 L33.7312,79.8153244 L34.5031,78.8276244 C35.026,78.1470244 36.9267,76.1135244 38.6531,75.6404244 C40.7438242,75.1185076 42.882599,74.8125711 45.0358,74.7274244 L45.1935,74.7274244 C45.4176,74.7274244 50.7628,74.1879244 54.3235,70.5774244 C57.8842,66.9669244 58.1,62.5098244 58.3656,55.2639244 L58.4569,52.9731244 C58.4569,52.7739244 59.9177,28.5379244 60.1169,25.8902244 L60.1667,25.3424244 C60.3327,23.3753244 60.3327,23.3753244 61.1627,22.6366244 L61.9927,21.9311244 L62.9472,5.45562441 L60.4572,5.23152441 C57.3262903,4.90168558 54.2384816,4.24517852 51.2442,3.27272441 C44.9573683,1.05271163 38.3315475,-0.0539324688 31.6645,0.00252440628 L31.2827,0.00252440628 Z" id="Shape" fill="#B20A31"></path>
                <path d="M31.2827,2.57552441 C24.8876946,2.51309051 18.5310177,3.56925952 12.4998,5.69632441 C9.3128321,6.73873787 6.02420318,7.43986688 2.6892,7.78792441 L3.4445,20.7193244 C5.1045,22.2382244 5.1045,22.9188244 5.3369,25.6993244 C5.5693,28.4798244 6.9969,52.8984244 6.9969,52.8984244 C7.3704,61.6466244 7.1712,65.5476244 10.3916,68.7929244 C13.3381,71.7560244 17.9446,72.1710244 17.9446,72.1710244 C20.2997344,72.2586819 22.6392355,72.5924989 24.9249,73.1670244 C27.8963,73.9970244 30.4361,77.2589244 30.4361,77.2589244 L32.4696,77.2589244 C32.4696,77.2589244 34.9596,73.9804244 37.9559,73.1670244 C40.2416231,72.592797 42.5810928,72.2589844 44.9362,72.1710244 C44.9362,72.1710244 49.5427,71.7560244 52.4809,68.7929244 C55.7096,65.5393244 55.5021,61.6466244 55.8756,52.8984244 C55.8756,52.8984244 57.3364,28.4134244 57.5356,25.6993244 C57.7846,22.8358244 57.7265,22.2714244 59.4197,20.7193244 L60.175,7.78792441 C56.8652548,7.43455 53.6019457,6.73348104 50.4391,5.69632441 C44.4105918,3.56988287 38.0567487,2.51371797 31.6645,2.57552441 L31.2827,2.57552441 Z" id="Path" fill="#E30621"></path>
                <path d="M12.7571,6.43502441 C18.7059014,4.33775597 24.9753103,3.29566337 31.2827,3.35572441 L31.6645,3.35572441 C37.9719427,3.29498188 44.241469,4.337094 50.1901,6.43502441 C53.1973328,7.43080767 56.2981661,8.11771873 59.4446,8.48512441 C59.3699,9.77162441 58.7806,19.8146244 58.7474,20.3624244 C57.1787,21.8398244 57.0874,22.7113244 56.8882,25.0602244 L56.8384,25.5997244 C56.606,28.2889244 55.1784,51.8194244 55.1784,52.8237244 C55.1784,52.8237244 55.0871,55.1394244 55.0871,55.1394244 C54.8132,62.0118244 54.7219,65.4729244 52.0078,68.2119244 C49.2937,70.9509244 44.9777,71.3576244 44.9362,71.3659244 C42.5357811,71.4542279 40.1514577,71.7964354 37.8231,72.3868244 C35.1339,73.1255244 32.8846,75.5989244 32.1708,76.4455244 L30.8345,76.4455244 C30.1124,75.6155244 27.8465,73.1255244 25.1656,72.3868244 C22.8184232,71.7906145 20.4145165,71.4456094 17.9944,71.3576244 C17.9944,71.3576244 13.6784,70.9260244 10.9809,68.2119244 C8.2834,65.4978244 8.1755,61.9869244 7.9016,55.0398244 L7.8103,52.7905244 C7.7522,51.7779244 6.3578,28.2474244 6.1503,25.5582244 L6.1005,24.9938244 C5.9096,22.7943244 5.8017,21.8149244 4.2496,20.3375244 C4.2496,19.7897244 3.6271,9.73842441 3.5524,8.45192441 C6.68085739,8.09210948 9.76482818,7.41636115 12.7571,6.43502441 Z M31.2827,1.78702441 C24.8024516,1.72687364 18.3615616,2.79988716 12.2508,4.95762441 C9.11946399,5.97696374 5.88959504,6.66411071 2.6145,7.00772441 L1.8592,7.07412441 L2.6892,21.0928244 L2.9299,21.3086244 C4.2662,22.5121244 4.3077,22.9188244 4.5069,25.1598244 L4.5567,25.7325244 C4.8057,28.3968244 6.2167,52.6577244 6.2167,52.9067244 C6.2167,52.9067244 6.308,55.1394244 6.308,55.1394244 C6.64,62.3106244 6.7313,66.1452244 9.877,69.3158244 C13.0227,72.4864244 17.7122,72.9014244 17.9031,72.9180244 C20.2130018,73.0044902 22.5077403,73.3299259 24.7506,73.8891244 C27.4315,74.6278244 29.8302,77.6739244 29.8551,77.7071244 L30.0875,78.0059244 L32.8763,78.0059244 L33.1087,77.7071244 C33.1087,77.7071244 35.5074,74.6278244 38.1883,73.8891244 C40.4146586,73.3319227 42.6926792,73.0064912 44.986,72.9180244 C45.235,72.9180244 49.966,72.4449244 53.0702,69.3075244 C56.1744,66.1701244 56.3238,62.3189244 56.606,55.1975244 L56.6973,52.8984244 C56.6973,52.6660244 58.1581,28.4051244 58.3573,25.7325244 L58.4071,25.1930244 C58.6063,22.8275244 58.6312,22.5204244 59.9924,21.3086244 L60.2331,21.0928244 L61.0631,7.07412441 L60.3078,7.00772441 C57.0355184,6.66347626 53.8084672,5.97633689 50.6798,4.95762441 C44.5742869,2.80179524 38.1391815,1.72880954 31.6645,1.78702441 L31.2827,1.78702441 Z" id="Shape" fill="#FEFEFE"></path>
                <path d="M25.3482,63.9789244 L25.3482,67.6392244 C25.3328843,67.7362865 25.3624869,67.8350508 25.428666,67.9076865 C25.4948452,67.9803221 25.5904354,68.0189645 25.6885,68.0127244 L26.1616,68.0127244 L26.1616,68.6601244 L23.1736,68.6601244 L23.1736,68.0127244 L23.6799,68.0127244 C23.7779646,68.0189645 23.8735548,67.9803221 23.939734,67.9076865 C24.0059131,67.8350508 24.0355157,67.7362865 24.0202,67.6392244 L24.0202,65.2488244 L23.1902,65.2488244 L23.1902,64.6014244 L23.3811,64.6014244 C23.8070177,64.6401004 24.2043685,64.3831925 24.3439,63.9789244 L25.3482,63.9789244 Z" id="Path" fill="#FEFEFE"></path>
                <path d="M28.3279,65.3567244 C28.3279,65.9543244 28.5686,66.1867244 28.9587,66.1867244 C29.3488,66.1867244 29.5895,65.9128244 29.5895,65.3567244 C29.5895,64.8006244 29.3488,64.4852244 28.9587,64.4852244 C28.5686,64.4852244 28.3279,64.7674244 28.3279,65.3567244 Z M29.6808,66.4938244 C29.3465481,66.7494102 28.9301258,66.8734509 28.5105,66.8424244 C28.1050989,66.8957378 27.6966154,66.7695024 27.3919759,66.4967624 C27.0873365,66.2240223 26.9168705,65.8319312 26.9252,65.4231244 C26.9252,64.3275244 27.8963,63.8627244 28.884,63.8627244 C29.4899755,63.8191303 30.0846151,64.0432994 30.511006,64.4760782 C30.937397,64.9088571 31.1526996,65.5067641 31.1001,66.1120244 C31.1001,67.6973244 30.2701,68.7680244 28.718,68.7680244 L28.718,68.7680244 C28.1038,68.7680244 27.141,68.5605244 27.141,67.7886244 C27.1230496,67.6068869 27.186903,67.4265866 27.3152317,67.2966538 C27.4435603,67.1667211 27.6230535,67.1006329 27.805,67.1163244 C28.2283,67.1163244 28.4939,67.3404244 28.4939,67.6226244 C28.5090552,67.8248689 28.3865121,68.0120876 28.1951,68.0791244 C28.3102352,68.156745 28.4463576,68.1972921 28.5852,68.1953244 C29.4152,68.1953244 29.6974,67.6226244 29.6974,66.7511244 L29.6808,66.4938244 Z" id="Shape" fill="#FEFEFE"></path>
                <path d="M33.4158,67.2823244 C33.4158,67.8799244 33.6565,68.1123244 34.0466,68.1123244 C34.4367,68.1123244 34.6774,67.8384244 34.6774,67.2823244 C34.6774,66.7262244 34.4367,66.4108244 34.03,66.4108244 C33.6233,66.4108244 33.3992,66.6847244 33.3992,67.2823244 L33.4158,67.2823244 Z M33.3328,66.1369244 C33.6730821,65.8967357 34.0887268,65.7876658 34.5031,65.8298244 C34.9034189,65.7902637 35.3019754,65.920441 35.6017628,66.1886719 C35.9015502,66.4569027 36.0750742,66.8385869 36.0801,67.2408244 C36.0801,68.3364244 35.1173,68.8012244 34.1296,68.8012244 C33.5166124,68.8731524 32.9047463,68.6580794 32.4715815,68.2184253 C32.0384167,67.7787712 31.8324654,67.1637747 31.9135,66.5519244 C31.9135,64.9666244 32.6356,63.8959244 34.3122,63.8959244 C34.9181,63.8959244 35.8809,64.2030244 35.8809,64.8753244 C35.8809,65.3567244 35.607,65.5476244 35.1173,65.5476244 C34.9697182,65.5590513 34.8236705,65.5111679 34.7115029,65.4145791 C34.5993353,65.3179903 34.5303048,65.1806676 34.5197,65.0330244 C34.5045448,64.8307799 34.6270879,64.6435612 34.8185,64.5765244 C34.7035977,64.4984121 34.5673165,64.4578177 34.4284,64.4603244 C33.5984,64.4603244 33.3162,65.0330244 33.3162,65.7468244 L33.3328,66.1369244 Z" id="Shape" fill="#FEFEFE"></path>
                <path d="M37.35,63.8627244 C37.8800595,63.9437062 38.4157024,63.9825612 38.9519,63.9789244 C39.4831,63.9789244 40.4044,63.8627244 40.5455,63.8627244 C40.5836251,63.8602568 40.6209661,63.8743284 40.6479811,63.9013433 C40.674996,63.9283583 40.6890676,63.9656993 40.6866,64.0038244 C40.6866,64.5599244 39.6325,64.9583244 38.6531,64.9583244 C38.4134224,64.9640562 38.1746081,64.9275317 37.9476,64.8504244 L37.9476,65.5559244 C38.2508417,65.3758064 38.5994073,65.2865045 38.9519,65.2986244 C39.4464975,65.2341887 39.9448991,65.3857666 40.3198732,65.7146634 C40.6948473,66.0435602 40.9101067,66.5179476 40.9107,67.0167244 C40.9107,68.2202244 39.9064,68.7763244 38.8274,68.7763244 C37.9974,68.7763244 36.9101,68.4941244 36.9101,67.4566244 C36.9032802,67.2593856 36.9774869,67.0679501 37.1154624,66.9268388 C37.253438,66.7857274 37.4431577,66.7072381 37.6405,66.7096244 C37.8166224,66.6876327 37.9935309,66.7439717 38.1245009,66.8637614 C38.255471,66.9835511 38.3273304,67.1547437 38.3211,67.3321244 C38.3169875,67.4841885 38.2507612,67.6279297 38.1378476,67.7298656 C38.024934,67.8318014 37.8751913,67.8830322 37.7235,67.8716244 C37.9041493,68.0529966 38.14816,68.1571475 38.4041,68.1621244 C39.1843,68.1621244 39.4997,67.7305244 39.4997,66.9835244 C39.4997,66.4108244 39.2424,65.9875244 38.6199,65.9875244 C38.354329,65.9736169 38.0981751,66.0878059 37.931,66.2946244 L37.1923,66.2946244 L37.35,63.8627244 Z" id="Path" fill="#FEFEFE"></path>
                <path d="M6.64,57.3887244 C10.79,64.0287244 16.7743,70.5857244 26.56,73.5986244 L25.8877,72.6109244 C16.3344,68.7763244 10.79,62.2442244 6.8807,56.0856244 L6.64,57.3887244 Z" id="Path" fill="#FEFEFE"></path>
                <path d="M7.2293,16.3867244 L7.0218,15.7476244 L7.47,15.6065244 C7.55674071,15.5891133 7.62973012,15.530877 7.66596695,15.4501677 C7.70220378,15.3694584 7.69722515,15.2762161 7.6526,15.1998244 L6.7064,12.2616244 C6.69029976,12.1812556 6.63905269,12.1123213 6.5667301,12.0737492 C6.49440751,12.0351772 6.40861159,12.0310219 6.3329,12.0624244 L5.8847,12.2118244 L5.6772,11.5727244 L10.4746,10.0123244 L11.0722,11.8798244 L10.3999,12.0956244 C10.0679,11.0498244 9.5699,11.0166244 8.6818,11.3154244 L7.968,11.5478244 L8.4079,12.9422244 L8.632,12.8675244 C9.0387,12.7347244 9.1383,12.4940244 9.047,12.1869244 L8.9557,11.8798244 L9.5533,11.6889244 L10.2505,13.8884244 L9.6529,14.0793244 L9.5616,13.7971244 C9.462,13.4900244 9.2462,13.3572244 8.8312,13.4900244 L8.6071,13.5647244 L8.9972,14.7848244 C9.01330024,14.8651932 9.06454731,14.9341275 9.1368699,14.9726996 C9.20919249,15.0112716 9.29498841,15.0154269 9.3707,14.9840244 L9.8189,14.8346244 L10.0264,15.4737244 L7.2293,16.3867244 Z" id="Path" fill="#FEFEFE"></path>
                <path d="M12.5247,14.1955244 C12.6106501,14.5314292 12.4167001,14.875416 12.0848,14.9757244 C11.9229875,15.0215586 11.7495717,15.0008791 11.6030747,14.9182797 C11.4565776,14.8356803 11.34913,14.6980006 11.3046,14.5358244 C11.2438112,14.3178745 11.303915,14.0840501 11.4622708,13.9224306 C11.6206265,13.7608111 11.8531763,13.6959502 12.0723208,13.7522806 C12.2914653,13.8086109 12.4639113,13.9775745 12.5247,14.1955244" id="Path" fill="#FEFEFE"></path>
                <path d="M16.1684,8.55982441 L16.8324,8.41042441 L17.2806,10.4439244 L16.5917,10.6016244 C16.5579756,10.2318901 16.3661643,9.89475188 16.065562,9.67685497 C15.7649597,9.45895806 15.3848785,9.38154985 15.023,9.46452441 C14.193,9.64712441 13.8859,10.3443244 14.193,11.6723244 C14.4503,12.8509244 14.9068,13.5398244 15.9443,13.3323244 C16.2832191,13.2479677 16.5720035,13.0268871 16.741886,12.7217279 C16.9117684,12.4165687 16.9475463,12.0546391 16.8407,11.7221244 L17.5296,11.5644244 C17.8118,12.9422244 17.1561,13.7888244 15.7783,14.0544244 C15.0803972,14.2680204 14.3239214,14.1646648 13.7088935,13.7716859 C13.0938657,13.3787071 12.6822199,12.7356785 12.5828,12.0126244 C12.3854686,11.332139 12.4823421,10.6000996 12.8498836,9.99436592 C13.2174252,9.38863222 13.8219935,8.96464728 14.5167,8.82542441 C15.0525487,8.72016798 15.6076482,8.77799084 16.1103,8.99142441 L16.1684,8.55982441 Z" id="Path" fill="#FEFEFE"></path>
                <path d="M19.6046,12.6600244 C19.6596435,13.005585 19.4265617,13.3311595 19.0817,13.3904244 C18.9165686,13.4193123 18.74673,13.381281 18.6096879,13.2847286 C18.4726458,13.1881763 18.3796731,13.041045 18.3513,12.8758244 C18.312751,12.6519439 18.3965692,12.4245042 18.5711809,12.2791796 C18.7457926,12.133855 18.9846702,12.0927237 19.1978309,12.1712796 C19.4109915,12.2498355 19.566051,12.4361439 19.6046,12.6600244" id="Path" fill="#FEFEFE"></path>
                <path d="M21.1069,9.76332441 L20.9077,7.82942441 L25.8877,7.30652441 L26.0869,9.24042441 L25.3897,9.31512441 C25.3067,8.54322441 25.0328,8.07842441 24.1613,8.16972441 L24.5099,11.5644244 C24.5085283,11.6465807 24.5441126,11.7250127 24.6068383,11.7780883 C24.6695639,11.8311639 24.752804,11.8532754 24.8336,11.8383244 L25.2901,11.7885244 L25.3565,12.4608244 L22.4266,12.7679244 L22.41,12.0956244 L22.8831,12.0458244 C22.9641124,12.0427685 23.0396089,12.0039814 23.0892701,11.9399024 C23.1389312,11.8758235 23.1576543,11.793037 23.1404,11.7138244 L22.7918,8.31912441 C21.9618,8.41042441 21.746,8.91672441 21.829,9.69692441 L21.1069,9.76332441 Z" id="Path" fill="#FEFEFE"></path>
                <path d="M26.56,7.21522441 L28.8591,7.21522441 L28.8591,7.88752441 L28.6516,7.88752441 C28.5022,7.88752441 28.4275,7.92902441 28.4275,8.08672441 C28.4497598,8.22826362 28.4859008,8.36726742 28.5354,8.50172441 L29.3156,11.0498244 L29.3156,11.0498244 L29.9464,8.69262441 L29.8053,8.24442441 C29.7223,7.99542441 29.5978,7.84602441 29.4069,7.84602441 L29.2492,7.84602441 L29.2492,7.17372441 L31.6645,7.17372441 L31.6645,7.84602441 L31.3242,7.84602441 C31.1748,7.84602441 31.1001,7.88752441 31.1001,8.04522441 C31.1218685,8.18686543 31.1580221,8.32591784 31.208,8.46022441 L31.8969,10.9502244 L31.8969,10.9502244 L32.4862,8.46022441 C32.5281849,8.31417875 32.5532493,8.16379244 32.5609,8.01202441 C32.5609,7.90412441 32.4364,7.84602441 32.3617,7.84602441 L32.0214,7.84602441 L32.0214,7.12392441 L33.8889,7.12392441 L33.8889,7.72982441 L33.7976,7.72982441 C33.5652,7.72982441 33.3909,7.83772441 33.2747,8.29422441 L32.37,12.1869244 L30.9673,12.1869244 L30.3531,10.0621244 L30.3531,10.0621244 L29.7804,12.2035244 L28.3694,12.2035244 L27.2987,8.61792441 C27.1244,8.02032441 26.9584,7.78792441 26.726,7.83772441 L26.6264,7.83772441 L26.56,7.21522441 Z" id="Path" fill="#FEFEFE"></path>
                <path d="M35.1837,8.18632441 C35.198651,8.10552838 35.1765395,8.02228835 35.1234639,7.95956266 C35.0703883,7.89683696 34.9919562,7.86125273 34.9098,7.86262441 L34.4367,7.86262441 L34.4865,7.19032441 L39.5163,7.54722441 L39.3835,9.48112441 L38.6863,9.38982441 C38.761,8.29422441 38.346,8.09502441 37.3832,8.02862441 L36.6362,7.97882441 L36.52,9.43962441 L36.7524,9.43962441 C37.1923,9.43962441 37.3583,9.30682441 37.3998,8.83372441 L37.3998,8.66772441 L38.0306,8.70922441 L37.8812,11.0498244 L37.2504,11.0000244 L37.2504,10.8174244 C37.2504,10.5352244 37.1923,10.1783244 36.9184,10.1617244 L36.4619,10.1617244 L36.354,11.7470244 L37.2753,11.8134244 C38.1053,11.8715244 38.5037,11.7304244 38.5867,10.5020244 L39.2922,10.5518244 L39.1511,12.6185244 L34.1296,12.2616244 L34.1794,11.5893244 L34.6359,11.5893244 C34.716886,11.6018123 34.7992092,11.5773846 34.8602766,11.5227453 C34.921344,11.468106 34.9547403,11.3889953 34.9513,11.3071244 L35.1837,8.18632441 Z" id="Path" fill="#FEFEFE"></path>
                <path d="M44.2722,11.7138244 L44.2722,11.7138244 L44.6457,9.22382441 C44.6685568,9.1436332 44.6536391,9.05739719 44.6051726,8.989544 C44.556706,8.9216908 44.4799696,8.87961103 44.3967,8.87522441 L43.99,8.80882441 L44.0896,8.14482441 L46.397,8.49342441 L46.2974,9.15742441 L45.8492,9.09102441 C45.7687942,9.07089136 45.6835963,9.08825248 45.6174799,9.13824296 C45.5513634,9.18823344 45.5114412,9.2654753 45.5089,9.34832441 L44.903,13.3904244 L43.3841,13.1580244 L41.832,9.11592441 L41.832,9.11592441 L41.4087,11.8798244 C41.3858432,11.9600156 41.4007609,12.0462516 41.4492274,12.1141048 C41.497694,12.181958 41.5744304,12.2240378 41.6577,12.2284244 L42.1142,12.2948244 L42.0146,12.9588244 L39.6989,12.6019244 L39.7985,11.9379244 L40.255,12.0043244 C40.3354058,12.0244574 40.4206037,12.0070963 40.4867201,11.9571058 C40.5528366,11.9071154 40.5927588,11.8298735 40.5953,11.7470244 L41.0601,8.66772441 C41.0829568,8.5875332 41.0680391,8.50129719 41.0195726,8.433444 C40.971106,8.3655908 40.8943696,8.32351103 40.8111,8.31912441 L40.3463,8.24442441 L40.4459,7.58042441 L42.8612,7.94562441 L44.2722,11.7138244 Z" id="Path" fill="#FEFEFE"></path>
                <path d="M46.48,10.5020244 L46.9116,8.60962441 L51.8169,9.74672441 L51.3853,11.6391244 L50.63,11.4814244 C50.8043,10.7178244 50.6881,10.1949244 49.8,9.99572441 L49.0364,13.3157244 C49.0080555,13.3928963 49.0158746,13.4787189 49.0576986,13.549498 C49.0995226,13.620277 49.1709276,13.6685261 49.2522,13.6809244 L49.6921,13.7805244 L49.5427,14.4362244 L46.6709,13.7722244 L46.8203,13.1165244 L47.2768,13.2244244 C47.3554568,13.2499185 47.4414208,13.2385155 47.5107109,13.1933964 C47.5800009,13.1482774 47.6252004,13.0742716 47.6337,12.9920244 L48.3973,9.67202441 C47.5673,9.47282441 47.2187,9.89612441 47.0444,10.6597244 L46.48,10.5020244 Z" id="Path" fill="#FEFEFE"></path>
                <path d="M52.8461,11.0498244 C52.8806666,10.9744135 52.8791938,10.8873999 52.8420948,10.813202 C52.8049959,10.7390041 52.7362687,10.6856177 52.6552,10.6680244 L52.207,10.5269244 L52.4062,9.88782441 L57.2202,11.4067244 L56.6475,13.2576244 L55.9752,13.0418244 C56.3072,11.9960244 55.9752,11.7055244 55.0207,11.3818244 L54.3069,11.1577244 L53.8753,12.5521244 L54.0994,12.6268244 C54.5227,12.7596244 54.7219,12.6268244 54.863,12.1869244 L54.9128,12.0292244 L55.5104,12.2201244 L54.78,14.4777244 L54.1824,14.2868244 L54.2405,14.1125244 C54.3235,13.8469244 54.3318,13.4734244 54.0662,13.3904244 L53.6346,13.2493244 L53.1615,14.7682244 L54.0413,15.0504244 C54.8049,15.2911244 55.2531,15.2579244 55.6183,14.0876244 L56.2906,14.3034244 L55.6764,16.2788244 L50.8707,14.7599244 L51.0699,14.1208244 L51.5098,14.2619244 C51.5855116,14.2933269 51.6713075,14.2891716 51.7436301,14.2505996 C51.8159527,14.2120275 51.8671998,14.1430932 51.8833,14.0627244 L52.8461,11.0498244 Z" id="Path" fill="#FEFEFE"></path>
                <path d="M48.14,21.1675244 L52.6801,17.1503244 L51.46,16.9096244 L47.4262,20.5035244 C47.65973,20.7123154 47.881409,20.9339944 48.0902,21.1675244" id="Path" fill="#FEFEFE"></path>
                <path d="M33.7478,57.5298244 L33.6233,58.4345244 C37.9171215,60.3733382 42.3825175,61.9071893 46.9614,63.0161244 C47.0831333,62.7560577 47.1993333,62.4959911 47.31,62.2359244 C42.6472889,61.1109512 38.105142,59.5348207 33.7478,57.5298244" id="Path" fill="#FEFEFE"></path>
                <path d="M28.8757,54.9734244 C27.3319,54.0714911 25.896,53.1418911 24.568,52.1846244 C24.4677181,52.4432273 24.3183385,52.6799798 24.1281,52.8818244 L24.07,52.9648244 C25.3537333,53.8778244 26.7370667,54.7659244 28.22,55.6291244 C28.4000803,55.3751908 28.6217664,55.1535047 28.8757,54.9734244" id="Path" fill="#FEFEFE"></path>
                <path d="M50.4308,48.4828244 L50.3561,48.3998244 C50.0905,48.5409244 49.7668,48.6571244 49.7668,48.5492244 L49.6921,48.5492244 C50.0166455,53.2315856 49.1991862,57.9227197 47.31,62.2193244 L47.7997,62.3438244 L47.5092,63.1738244 L46.9614,63.0327244 C45.4086144,66.3910379 43.3202097,69.4745886 40.7779,72.1627244 L41.4585,72.8101244 C51.46,62.0948244 50.8375,50.5661244 50.63,48.3334244 L50.5304,48.4247244 L50.4308,48.4828244 Z" id="Path" fill="#FEFEFE"></path>
                <path d="M47.7997,62.3521244 L47.31,62.2193244 C47.1993333,62.4793911 47.0831333,62.7394577 46.9614,62.9995244 L47.5092,63.1406244 L47.7997,62.3521244 Z" id="Path" fill="#FEFEFE"></path>
                <path d="M56.606,41.7598244 C54.8298,43.3534244 52.6718,45.2707244 49.966,47.6694244 L50.2897,47.7192244 L50.6715,47.7773244 L50.6715,48.1674244 C50.6715,48.1674244 50.63,48.2338244 50.5636,48.2836244 L50.5636,48.3666244 C52.9125,46.2833244 54.8547,44.5569244 56.4898,43.0961244 L56.606,41.7598244 Z" id="Path" fill="#FEFEFE"></path>
                <path d="M50.3478,48.3998244 L50.4474,48.5077244 L50.5304,48.4330244 L50.63,48.3998244 L50.63,48.2919244 C50.535511,48.3607849 50.4355821,48.4218526 50.3312,48.4745244" id="Path" fill="#FEFEFE"></path>
                <path d="M49.6838,48.5326244 C49.6838,48.3334244 49.6838,48.2172244 49.6423,48.2089244 L50.0739,48.0844244 L49.8,47.7773244 L49.8664,47.7192244 L49.9577,47.6362244 C47.5951993,47.2688582 45.2796989,46.6454542 43.0521,45.7770244 C42.9306086,46.0632614 42.7891605,46.3406107 42.6288,46.6070244 C44.8982597,47.5037951 47.2581454,48.1522071 49.6672,48.5409244" id="Path" fill="#FEFEFE"></path>
                <path d="M22.9578,23.3006244 C22.2138318,21.2492554 21.6310631,19.1429628 21.2148,17.0009244 L21.0737,17.1669244 L20.3682,16.5527244 L20.4927,16.4033244 C14.722061,16.4385943 9.04701795,17.8801464 3.9591,20.6031244 L3.9591,21.6821244 C7.7439,19.4909244 13.0891,17.5902244 20.3433,17.3578244 C20.7944487,19.6166889 21.4216289,21.8367959 22.2191,23.9978244 C22.4509395,23.7584018 22.6976635,23.5338552 22.9578,23.3255244" id="Path" fill="#FEFEFE"></path>
                <polygon id="Path" fill="#FEFEFE" points="21.082 17.1669244 21.2231 17.0009244 21.2231 16.7934244 21.165 16.3867244 20.501 16.3867244 20.3765 16.5361244"></polygon>
                <path d="M49.6423,48.2421244 C49.6423,48.2421244 49.6423,48.3998244 49.6838,48.6654244 L49.7585,48.6654244 C49.7585,48.7982244 50.0988,48.6654244 50.3727,48.4662244 L50.0905,48.0595244 L49.6423,48.2421244 Z" id="Path" fill="#FEFEFE"></path>
                <path d="M49.8,47.8105244 L50.0656,48.1757244 L50.5304,48.0180244 C50.5304,48.0180244 50.5304,48.1591244 50.5719,48.3915244 C50.63,48.3334244 50.6798,48.2836244 50.6798,48.2504244 L50.6798,47.7773244 L50.298,47.7109244 L49.9743,47.6445244 L49.883,47.7441244 L49.8,47.8105244 Z" id="Path" fill="#FEFEFE"></path>
                <path d="M50.0739,48.1259244 L50.4308,48.5326244 C50.5351643,48.4799207 50.6350907,48.4188546 50.7296,48.3500244 C50.7296,48.1093244 50.6798,47.9682244 50.6798,47.9516244 L50.0739,48.1259244 Z" id="Path" fill="#FEFEFE"></path>
                <path d="M15.3965,43.6771244 L15.106,43.3285244 C15.1883698,43.4560519 15.2859167,43.5731082 15.3965,43.6771244" id="Path" fill="#FEFEFE"></path>
                <path d="M15.3965,43.6771244 L15.106,43.3285244 C15.1883698,43.4560519 15.2859167,43.5731082 15.3965,43.6771244" id="Path" fill="#E30621"></path>
                <path d="M14.3507,42.3657244 C14.0851,42.0171244 13.8278,41.6685244 13.5705,41.3282244 C13.7410508,41.7330933 14.0090725,42.0895052 14.3507,42.3657244" id="Path" fill="#FEFEFE"></path>
                <path d="M15.3301,43.5941244 C15.2444538,43.5123567 15.1691889,43.4203662 15.106,43.3202244 C14.8459333,42.9992911 14.5941667,42.6783577 14.3507,42.3574244 C14.0851,42.0088244 13.8278,41.6602244 13.5705,41.3199244 C12.8733,40.3571244 12.2425,39.4192244 11.6781,38.5145244 C6.1918,29.7082244 5.8681,23.2093244 5.8681,23.1346244 L4.7061,21.9643244 C4.7061,22.2880244 5.2207,29.9406244 10.8149,38.9461244 C13.2741483,42.9065857 16.2997378,46.4858413 19.7955,49.5701244 C19.8483959,49.3094118 19.9319779,49.05588 20.0445,48.8148244 L20.0445,48.7567244 L20.1109,48.6322244 C18.382044,47.0734372 16.7702571,45.3895221 15.2886,43.5941244" id="Path" fill="#FEFEFE"></path>
                <path d="M25.73,50.1096244 C27.4701856,50.3139601 29.1910841,50.6581398 30.876,51.1388244 C31.54,51.3629244 31.9965,50.4333244 32.3949,50.0266244 C32.7933,49.6199244 32.4447,48.9642244 31.8637,47.6528244 C31.4424797,46.6342995 31.0984431,45.5855429 30.8345,44.5154244 C30.5055578,44.2829148 30.1164728,44.1503377 29.714,44.1336244 C29.1911,44.1336244 28.884,43.9593244 28.7844,44.0174244 C28.3777,44.1917244 28.7014,45.2043244 28.7844,45.8434244 C29.0398278,46.7039216 29.2394428,47.5800098 29.382,48.4662244 C29.299,48.8895244 28.9753,49.0223244 28.552,49.1219244 C27.7000341,49.1081867 26.8506122,49.02491 26.0122,48.8729244 C26.0122,48.8729244 23.9289,48.4247244 22.6922,48.2919244 C21.9554917,48.16504 21.2409739,48.6116136 21.0322,49.3294244 C20.8730241,49.7983711 20.761789,50.2822439 20.7002,50.7736244 C20.6504,51.0475244 20.5674,51.1222244 20.1192,51.9522244 C19.8581884,52.3394611 19.7488699,52.8092352 19.8121,53.2719244 C19.8121,53.4960244 19.8702,53.5292244 20.0777,53.6454244 C20.2852,53.7616244 20.4429,53.5956244 21.4472,53.1059244 C22.4515,52.6162244 22.8582,52.3921244 22.8416,52.2095244 C22.8274829,52.0775053 22.7788145,51.95154 22.7005,51.8443244 C22.5267254,51.6615799 22.3761859,51.4580728 22.2523,51.2384244 C22.2448288,51.2056447 22.2448288,51.1716041 22.2523,51.1388244 L22.7752,51.2716244 C22.956982,51.3058311 23.1154507,51.4161609 23.2106182,51.5747735 C23.3057857,51.733386 23.3285621,51.9251313 23.2732,52.1016244 C23.8957,51.4210244 23.2732,50.9396244 22.7918,50.6906244 C22.9412,50.6906244 23.1072,50.6159244 23.2649,50.5744244 C23.402651,50.53156 23.552069,50.5484871 23.6767402,50.6210804 C23.8014113,50.6936737 23.8898851,50.815266 23.9206,50.9562244 C24.1115,50.0764244 23.0906,50.1262244 22.7835,50.1843244 L23.0657,49.9851244 C23.9605846,49.9225604 24.8596379,49.9587452 25.7466,50.0930244 M31.8803,17.7230244 C31.6645,17.8807244 31.7143,17.6151244 31.7143,17.6151244 C31.7143,17.6151244 31.9052,16.8349244 32.1376,16.7353244 C32.37,16.6357244 32.7103,18.0218244 32.7103,18.0218244 C32.7103,18.0218244 32.3036,17.4159244 31.8803,17.7230244 M30.9922,20.4537244 C30.9922,20.6778244 30.9092,21.1426244 30.627,21.2837244 C30.2983834,21.4584287 29.8916835,21.3707779 29.6642,21.0762244 L28.6018,21.7153244 C29.1614723,21.0508476 29.8327675,20.4890943 30.5855,20.0553244 C30.9258,19.9308244 31.4155,20.4288244 31.4155,20.4288244 L30.9507,20.5035244 M25.5142,24.2302244 C25.3648,24.2966244 25.1739,24.0393244 25.3067,23.9646244 C25.4379474,23.8992487 25.5738918,23.8437612 25.7134,23.7986244 C25.7664044,23.9722136 25.6806853,24.1579382 25.5142,24.2302244 M44.82,43.0629244 C47.1357,42.2910244 45.1022,40.7057244 46.0899,39.0208244 C47.4013,36.7798244 48.887,38.2987244 48.97,34.7048244 C48.8161312,33.7384118 49.1232395,32.7556653 49.8,32.0488244 C51.2193,30.4469244 49.5095,26.9526244 49.5095,26.9526244 C49.5095,26.9526244 50.0905,30.0485244 48.4388,31.0113244 C47.5191959,31.5677433 46.960903,32.5676238 46.9697,33.6424244 C46.8535,34.6550244 46.8286,34.7131244 46.8286,34.7131244 C46.8746347,34.1066502 46.8523616,33.4969234 46.7622,32.8954244 C46.5351896,31.9123596 46.5351896,30.8904892 46.7622,29.9074244 C47.0195,28.6956244 47.8827,27.5419244 48.5467,25.4918244 C49.2107,23.4417244 46.6875,21.3418244 46.6875,21.3418244 C47.9306527,23.080237 47.5950737,25.4876512 45.9239,26.8198244 C45.1170062,27.4450058 44.6132351,28.3831662 44.5378,29.4011244 C44.5378,29.4011244 44.0232,28.1727244 45.6085,25.6993244 C47.31,23.0101244 44.5461,21.0762244 43.99,20.4620244 C43.4339,19.8478244 44.8698,19.6320244 44.82,18.3040244 C44.7702,16.9760244 43.16,16.2954244 43.16,16.2954244 C43.5642628,16.8774829 43.8465924,17.5353109 43.99,18.2293244 C43.99,19.3913244 43.4007,19.3083244 43.4007,19.3083244 C42.7782,19.3083244 42.6869,18.5364244 42.6869,18.5364244 C42.6869,18.5364244 42.2802,19.1506244 43.6497,21.0264244 C45.0192,22.9022244 43.3924,25.6080244 43.3924,25.6080244 C43.2513,23.1180244 42.4628,22.2880244 42.4628,22.2880244 C42.4628,22.2880244 42.9691,23.3836244 41.6328,26.7368244 C40.67,29.3098244 41.5664,29.8327244 42.4545,30.9698244 C45.4674,34.7546244 44.903,36.5059244 44.571,36.7798244 C44.2821417,37.040918 43.8363733,37.0186296 43.575,36.7300244 C42.579,36.0162244 43.2679,33.9910244 42.9774,33.0033244 C42.7706538,32.290218 42.2131064,31.7326706 41.5,31.5259244 L41.4419,31.5259244 C41.2478304,31.4643425 41.0473052,31.4253514 40.8443,31.4097244 C41.0381378,31.5630532 41.2160964,31.7354506 41.3755,31.9243244 C41.5190822,32.101453 41.6211799,32.3084844 41.6743,32.5302244 C41.67779,32.591041 41.67779,32.6520078 41.6743,32.7128244 C41.7283172,33.3884974 41.7032474,34.0681669 41.5996,34.7380244 C41.3838,36.7881244 41.2676,37.1035244 42.7865,38.4979244 C44.8615,40.4152244 43.3343,42.4487244 42.4711,42.6479244 L42.4711,42.3242244 C41.9648,40.0500244 39.2507,39.2449244 37.9808,38.8465244 C36.3208,38.3153244 33.1419,33.3104244 33.1419,33.3104244 C32.8198551,32.8461654 32.7028089,32.2699376 32.8182,31.7168244 C32.9928532,32.1856058 33.3445414,32.567098 33.7976,32.7792244 C34.3869,33.0697244 35.0675,32.5634244 35.9639,32.5800244 C36.8603,32.5966244 36.7939,33.8748244 36.7939,33.8748244 L36.9848,33.0448244 C37.3749,31.1773244 35.4659,31.7417244 34.4948,31.4844244 C33.5237,31.2271244 34.6691,29.9572244 34.6691,29.9572244 C34.9033949,30.3423624 35.2842525,30.6156479 35.7241378,30.7142699 C36.1640231,30.8128919 36.6251015,30.7283678 37.0014,30.4801244 C36.3766603,30.372439 35.8678031,29.9183323 35.69,29.3098244 C35.4161,28.1976244 36.4536,28.7122244 36.4536,28.7122244 C37.0134839,28.8516994 37.4469624,29.2948107 37.5741,29.8576244 C37.7084569,30.3377757 38.05152,30.7321064 38.508459,30.931615 C38.9653981,31.1311236 39.4878141,31.1146781 39.9313,30.8868244 C38.4373,30.8868244 38.4871,29.2268244 38.4871,29.2268244 C38.1883,27.3925244 37.8978,27.3925244 37.3168,26.9526244 C36.7358,26.5127244 36.9184,25.4420244 37.8065,25.6080244 C38.3670949,25.6216246 38.811783,26.0848414 38.8025,26.6455244 C38.8466449,27.2264084 39.3407663,27.6692875 39.923,27.6498244 C39.3171,27.2846244 39.5993,25.8072244 39.5993,25.8072244 C39.6906,24.4211244 38.9021,24.2800244 38.5286,24.1970244 C36.52,23.7571244 37.35,22.1137244 37.35,22.1137244 C38.5535,23.7737244 40.1969,22.4125244 40.1969,22.4125244 C39.0681,22.7943244 38.8855,22.4125244 38.6282,21.1592244 C38.3845185,20.2802778 37.6977466,19.5935059 36.8188,19.3498244 C36.8968027,19.3021151 36.9716571,19.2494398 37.0429,19.1921244 C39.01,17.5819244 39.757,19.5324244 39.757,19.5324244 C39.757,16.8598244 37.4247,17.3495244 36.2793,17.7562244 C35.1339,18.1629244 34.86,15.9302244 32.702,16.5527244 L32.6356,16.5527244 C32.3949,16.0381244 32.1376,15.6231244 31.9301,15.7227244 C31.6144092,16.1353328 31.3908209,16.6108117 31.2744,17.1171244 L31.0337,17.2416244 C30.8400355,17.298162 30.6512819,17.3703325 30.4693,17.4574244 C30.3531,17.1254244 30.129,16.5361244 29.9713,16.6274244 C29.7187957,17.0805725 29.5395162,17.5707898 29.4401,18.0799244 C28.8515018,18.5253038 28.314236,19.0347319 27.8382,19.5988244 C27.583717,20.1969169 27.2455733,20.755832 26.8339,21.2588244 C26.3359,21.7734244 24.9498,23.1263244 24.817,23.2508244 C24.6842,23.3753244 24.4435,23.4915244 23.987,23.8650244 C23.5305,24.2385244 23.987,24.6950244 24.1779,25.2179244 C24.3688,25.7408244 24.8004,26.1890244 25.2901,26.0479244 C25.9043,25.9151244 25.7466,25.7325244 26.2446,25.4337244 C26.7426,25.1349244 27.2572,25.1930244 28.5105,25.1930244 C29.6958795,25.0516405 30.813211,24.5637102 31.7226,23.7903244 C32.1439255,23.1139937 32.4051084,22.3503177 32.4862,21.5576244 C32.4862,21.5576244 32.4862,21.9394244 32.3783,22.4872244 C32.3821502,23.0720707 32.2241586,23.6465856 31.9218,24.1472244 C31.0836423,24.8457827 30.1394105,25.4061577 29.1247,25.8072244 C28.6018,25.9732244 27.1742,25.7242244 26.7509,25.8487244 C26.397971,26.0096662 26.0837709,26.2446086 25.8296,26.5376244 L23.2483,28.1976244 C21.0571,30.1896244 21.2646,31.6006244 21.2646,31.6006244 L21.6879,31.4263244 C20.9907,32.6298244 19.3639,32.4140244 18.4343,32.4057244 C17.5047,32.3974244 15.8281,32.2812244 15.8281,32.2812244 C14.5997,32.9452244 14.7325,33.3021244 14.9068,33.7171244 C14.9896022,34.2673601 14.9896022,34.8268888 14.9068,35.3771244 C14.9068,35.3771244 14.5582,37.3442244 14.4005,39.3445244 C14.2428,41.3448244 15.3467,41.4859244 15.6289,41.7515244 C15.9111,42.0171244 15.853,42.2163244 15.9858,42.5234244 C16.1186,42.8305244 16.2846,42.5898244 16.5917,42.7226244 C16.9353765,42.9227141 17.2603828,43.153274 17.5628,43.4115244 C17.5628,43.4115244 17.8367,43.2870244 17.9778,42.6977244 C18.0057539,42.0986899 17.9241851,41.4995813 17.7371,40.9298244 L17.5213,41.0626244 C17.3055,41.1954244 17.2059,41.1871244 16.849,41.1207244 C16.4921,41.0543244 16.4672,40.7472244 16.4091,40.1413244 C16.3951535,40.0257609 16.3701386,39.9118043 16.3344,39.8010244 C16.4589,39.7263244 16.5834,39.6433244 16.7079,39.5603244 C16.8145238,39.4817134 16.9488294,39.4505135 17.0791877,39.4740722 C17.2095461,39.497631 17.3244357,39.5738662 17.3968,39.6848244 C17.3221,39.1619244 16.932,39.1370244 16.5668,39.2200244 L16.7909,38.8880244 C16.8612147,38.7748349 16.9790457,38.699618 17.1113174,38.6834873 C17.2435892,38.6673566 17.3760435,38.7120509 17.4715,38.8050244 C16.9901,37.8173244 16.1684,38.9295244 16.1684,38.9295244 C16.082666,39.0068587 15.9675989,39.0431956 15.853,39.0291244 L15.8032,38.9627244 C15.5708,38.6473244 15.604,38.1327244 15.604,37.4106244 C15.6530723,36.5525146 15.8525382,35.709701 16.1933,34.9206244 C16.4257,34.4890244 17.3221,34.1487244 17.3221,34.1487244 C18.5638537,34.0153572 19.8196132,34.1167189 21.0239,34.4475244 C21.7689353,34.749369 22.5310857,35.0071144 23.3064,35.2194244 C28.4939,36.1905244 28.6433,32.7294244 28.6433,32.7294244 C29.382,37.6098244 21.6713,35.8834244 21.6713,35.8834244 C21.9566942,36.7401913 22.4206456,37.5266455 23.0325,38.1908244 C27.0829,43.6854244 29.4401,43.4198244 29.4401,43.4198244 C30.7017,43.3617244 30.9258,43.7103244 30.9258,43.7103244 C31.0036432,43.6104096 31.057587,43.4940045 31.0835,43.3700244 L31.0835,43.3700244 C31.457,40.0998244 34.03,40.5065244 34.03,40.5065244 C30.0626,42.2329244 32.2704,46.3165244 32.2704,46.3165244 C32.769927,47.8607688 33.3801767,49.3669759 34.0964,50.8234244 C34.2975411,51.2933042 34.1201991,51.8395174 33.6814,52.1016244 L33.4739,52.3672244 C32.3480039,53.5584225 31.1386761,54.6678975 29.8551,55.6872244 C28.5188,56.3927244 28.9753,57.2725244 29.1247,57.9780244 C29.29234,58.5168353 29.5756033,59.012546 29.9547,59.4305244 L29.9547,59.9285244 C29.9547,60.8249244 31.0171,61.7545244 31.0171,61.7545244 C31.4632386,61.1003801 31.852018,60.4089082 32.1791,59.6878244 C32.5526,58.7665244 32.2372,58.8578244 31.9799,58.8578244 C31.6517836,58.8441971 31.3274213,58.7826801 31.0171,58.6752244 C30.5938,58.5341244 30.5855,58.3349244 30.9175,57.9946244 C31.0267338,57.9278291 31.1569452,57.9041543 31.2827,57.9282244 C31.5234,57.9780244 32.1127,57.9282244 32.0214,57.4966244 C31.8638991,57.7020333 31.5752974,57.7525386 31.3574,57.6128244 L31.2993,57.6128244 C31.4166097,57.462086 31.5906258,57.3660771 31.7807,57.3472244 C32.0878,57.3472244 32.8348,57.0733244 32.6107,56.5172244 C32.4778367,56.8206432 32.1395478,56.9773244 31.8222,56.8824244 C31.6259893,56.8230676 31.421052,56.7978014 31.2163,56.8077244 C31.2744,56.6085244 31.3491,56.3678244 31.4404,56.1022244 C31.6562,55.4880244 33.781,54.0521244 35.1588,53.3964244 C36.5366,52.7407244 36.1963,51.8194244 36.1963,51.8194244 C36.4038,48.9393244 37.8563,48.2089244 37.8563,48.2089244 C40.4127,47.1050244 41.2344,47.1714244 42.0478,45.1877244 C42.2363867,44.7349593 42.3701369,44.2612609 42.4462,43.7767244 L42.4462,43.7767244 C42.4462,43.7767244 42.8612,43.4198244 44.2888,44.0755244 C46.5049,45.0881244 49.2024,44.1336244 48.5384,42.1997244 C47.2768,38.5145244 49.6091,38.0497244 49.6091,38.0497244 C47.1606,37.3193244 46.7041,39.8591244 47.2187,41.6436244 C47.6254,43.0463244 45.899,43.3036244 45.3097,43.3534244 C44.6985342,43.4344955 44.0779499,43.4092228 43.4754,43.2787244 C43.9341825,43.310058 44.394064,43.2362499 44.82,43.0629244 M14.7159,29.5422244 C14.4330239,29.2904959 14.1745745,29.0125934 13.944,28.7122244 C13.8942,28.6292244 13.8942,28.6126244 13.944,28.6126244 C13.9938,28.6126244 13.944,28.6126244 13.944,28.6126244 L13.944,28.6126244 C14.0893226,28.5767745 14.243026,28.6038986 14.3673,28.6873244 C14.5665,28.8284244 15.1475,29.0359244 15.1973,28.5877244 C14.9709795,28.7136655 14.6859032,28.6451029 14.5416,28.4300244 C14.276,28.1063244 14.1432,28.0233244 13.9357,28.0150244 C14.0520442,27.7324986 14.2308076,27.4799599 14.4586,27.2763244 C14.8155,26.9775244 15.2886,26.5210244 15.2886,26.5210244 C15.9637834,25.7577447 16.8757295,25.2433135 17.8782,25.0602244 C18.7082,24.9938244 18.8908,25.6080244 19.3888,27.4008244 C19.6410261,28.3991999 20.0712086,29.3439143 20.6587,30.1896244 C20.846751,29.8157348 21.0602879,29.4552179 21.2978,29.1106244 C21.6215,28.6707244 22.3353,27.9486244 22.3436,27.8656244 C22.3519,27.7826244 22.3436,27.6249244 21.2563,26.5376244 C20.4698622,25.7760208 19.9440846,24.7854674 19.754,23.7073244 C19.5382,22.8773244 18.924,23.2093244 18.4592,23.2342244 C18.081339,23.2002061 17.7004831,23.2254098 17.3304,23.3089244 C16.7577,23.4666244 15.8779,24.7780244 15.6704,24.9689244 C14.9991324,25.5656532 14.2577512,26.0784883 13.4626,26.4961244 C12.7726543,26.7750123 12.2956959,27.4152249 12.2259,28.1561244 C12.2674,28.4383244 12.8235,29.6916244 12.8318,29.8161244 C12.8401,29.9406244 12.8318,30.0734244 12.8318,30.0734244 C12.8572286,30.6277433 12.9721458,31.1743006 13.1721,31.6919244 C13.4128,31.7998244 14.11,30.9698244 14.11,30.9698244 C14.9898,29.9821244 14.8902,29.6501244 14.7325,29.5173244" id="Shape" fill="#FEFEFE"></path>
                <polyline id="Path" fill="#FEFEFE" points="32.7518 6.13622441 36.9848 3.02372441 37.0512 2.97392441 36.52 2.21862441 36.4536 2.26842441 31.1748 6.13622441 32.7435 6.13622441"></polyline>
                <path d="M20.501,16.4033244 L21.1235,16.4033244 L21.1816,16.8100244 L21.1816,17.0175244 C22.3519,15.6397244 23.0823,14.7018244 23.6716,13.9714244 L22.41,14.0959244 C21.9286,14.7101244 21.331,15.4571244 20.5259,16.4033244" id="Path" fill="#FEFEFE"></path>
            </g>
        </g>
    </g>
</svg>