<?xml version="1.0" encoding="utf-8"?>
<!-- Generator: Adobe Illustrator 26.3.1, SVG Export Plug-In . SVG Version: 6.00 Build 0)  -->
<svg version="1.1" id="Laag_1" xmlns="http://www.w3.org/2000/svg" xmlns:xlink="http://www.w3.org/1999/xlink" x="0px" y="0px"
	 viewBox="0 0 595.3 595.3" style="enable-background:new 0 0 595.3 595.3;" xml:space="preserve">
<style type="text/css">
	.st0{fill:#293E42;}
</style>
<g>
	<path class="st0" d="M60.6,130.4"/>
	<g>
		<g>
			<path class="st0" d="M52.2,517.1c0-1.2-0.7-1.9-1.9-1.9h-3.6v-5h5.9c3.6,0,5.2,1.5,5.2,4.8v2c0,1.7-0.2,3.1-0.2,3.1h0.2
				c1.5-3.9,7-10.8,17-10.8c10.6,0,14.3,6,14.3,16.5v20.3c0,1.3,0.7,1.9,1.9,1.9h3.6v5h-6c-3.6,0-5.2-1.5-5.2-5.2v-20.4
				c0-6.7-1-12.6-9.2-12.6c-7.3,0-13.6,5-15.5,12c-0.5,1.8-0.7,3.7-0.7,5.8V553h-5.8V517.1z"/>
		</g>
		<g>
			<path class="st0" d="M133.6,509.3c12.5,0,22.6,9.5,22.6,22.1c0,12.9-10.1,22.6-22.5,22.6c-12.5,0-22.6-9.7-22.6-22.6
				C111.1,518.8,121.2,509.3,133.6,509.3z M133.7,548.8c9.1,0,16.5-7.5,16.5-17.4c0-9.7-7.5-16.9-16.5-16.9
				c-9.2,0-16.6,7.2-16.6,16.9C117,541.3,124.5,548.8,133.7,548.8z"/>
		</g>
		<g>
			<path class="st0" d="M178.8,515.1h-5.6v-4.8h5.7v-11.8h5.7v11.8h10.7v4.8h-10.7v21.7c0,10,6.4,11.3,9.6,11.3c1.2,0,2-0.2,2-0.2
				v5.2c0,0-1,0.2-2.5,0.2c-4.9,0-14.8-1.6-14.8-15.9V515.1z"/>
		</g>
		<g>
			<path class="st0" d="M239.5,526.6h2.4v-0.5c0-8.9-3.2-12-11-12c-2.1,0-8.3,0.6-8.3,3.7v2.7H217v-4.1c0-5.9,10.2-7.2,13.9-7.2
				c13.5,0,16.7,7.2,16.7,16.4v20.4c0,1.3,0.7,1.9,1.9,1.9h3.6v5h-5.9c-3.6,0-5.1-1.6-5.1-5.1c0-1.9,0.1-3.1,0.1-3.1h-0.2
				c0.1,0-3.5,9.2-14.2,9.2c-7.1,0-14.5-4.2-14.5-12.6C213.4,527.2,232.1,526.6,239.5,526.6z M228.8,549c8.1,0,13.1-8.5,13.1-15.9
				v-2h-2.5c-6.7,0-20.1,0.2-20.1,9.8C219.3,545,222.5,549,228.8,549z"/>
		</g>
		<g>
			<path class="st0" d="M273.6,517.1c0-1.2-0.7-1.9-1.9-1.9h-3.6v-5h5.9c3.6,0,5.2,1.4,5.2,4.8v2.9c0,1.8-0.2,3.2-0.2,3.2h0.2
				c2-6.4,6.8-11.4,13.5-11.4c1.2,0,2.3,0.3,2.3,0.3v5.7c0,0-1-0.2-2.1-0.2c-6,0-10.5,4.8-12.4,11c-0.8,2.7-1.2,5.6-1.2,8.3v18h-5.8
				V517.1z"/>
		</g>
		<g>
			<path class="st0" d="M316,517.1c0-1.2-0.7-1.9-1.9-1.9h-3.6v-5h6c3.6,0,5.2,1.5,5.2,5.2v30.6c0,1.3,0.7,1.9,1.9,1.9h3.6v5h-6
				c-3.6,0-5.2-1.5-5.2-5.2V517.1z M315.8,493.3h5.6v7.3h-5.6V493.3z"/>
		</g>
		<g>
			<path class="st0" d="M346.5,542.5c0,0,4.8,6.4,13.2,6.4c4.8,0,9-2.3,9-6.8c0-9.3-23.9-7.6-23.9-21.4c0-7.7,6.6-11.5,15.2-11.5
				c4.3,0,13,1.7,13,7.7v3.6h-5.4v-2c0-3.1-4.6-4.3-7.4-4.3c-5.9,0-9.5,2-9.5,6.2c0,9.6,23.9,7.4,23.9,21.5c0,7.1-6.4,12-14.9,12
				c-11.1,0-16.4-7.5-16.4-7.5L346.5,542.5z"/>
		</g>
		<g>
			<path class="st0" d="M395.2,542.5c0,0,4.8,6.4,13.2,6.4c4.8,0,9-2.3,9-6.8c0-9.3-23.9-7.6-23.9-21.4c0-7.7,6.6-11.5,15.2-11.5
				c4.3,0,13,1.7,13,7.7v3.6h-5.4v-2c0-3.1-4.6-4.3-7.4-4.3c-5.9,0-9.5,2-9.5,6.2c0,9.6,23.9,7.4,23.9,21.5c0,7.1-6.4,12-14.9,12
				c-11.1,0-16.4-7.5-16.4-7.5L395.2,542.5z"/>
		</g>
		<g>
			<path class="st0" d="M462.5,509.3c11.8,0,17.9,9.1,17.9,19.7c0,1-0.2,2.9-0.2,2.9h-32.8c0.2,10.8,7.7,17,16.5,17
				c7.8,0,12.8-5.3,12.8-5.3l2.8,4.3c0,0-6.2,6.1-15.9,6.1c-12.6,0-22.3-9.2-22.3-22.3C441.4,517.7,451,509.3,462.5,509.3z
				 M474.4,527.2c-0.3-8.8-5.8-13.1-12-13.1c-7,0-13.2,4.6-14.7,13.1H474.4z"/>
		</g>
		<g>
			<path class="st0" d="M503.2,517.1c0-1.2-0.7-1.9-1.9-1.9h-3.6v-5h5.9c3.6,0,5.2,1.5,5.2,4.8v2c0,1.7-0.2,3.1-0.2,3.1h0.2
				c1.5-3.9,7-10.8,17-10.8c10.6,0,14.3,6,14.3,16.5v20.3c0,1.3,0.7,1.9,1.9,1.9h3.6v5h-6c-3.6,0-5.2-1.5-5.2-5.2v-20.4
				c0-6.7-1-12.6-9.2-12.6c-7.3,0-13.6,5-15.5,12c-0.5,1.8-0.7,3.7-0.7,5.8V553h-5.8V517.1z"/>
		</g>
	</g>
	<g>
		<g>
			<path class="st0" d="M202,215c-13.3,0-23.8-3.6-31.5-10.7c-7.7-7.2-11.9-17.3-12.6-30.3c-0.7-13.1,1.3-25.1,6-35.9
				c4.7-10.8,11.3-19,19.9-24.7s18.6-8.5,29.9-8.5c11.2,0,20.1,2.6,26.6,7.7c6.5,5.2,10,12.2,10.5,21.2c0.6,11.8-4.2,21-14.4,27.4
				c-10.2,6.4-25.2,9.6-44.8,9.6h-4.8l-0.1,2l0.1,1.9c0.3,5.8,2.2,10.3,5.6,13.6c3.4,3.3,8.2,5,14.3,5c5.5,0,10.5-0.6,14.9-1.8
				c4.4-1.2,12.5-4.8,12.5-4.8l-3.7,23C219.9,213.5,210.8,215,202,215z M212.9,125.5c-5.6,0-10.7,2.5-15.4,7.6
				c-4.7,5.1-7.6,11.2-8.7,18.5h4.3c9.8,0,17.4-1.5,22.7-4.6c5.3-3.1,7.8-7.2,7.6-12.5C223.1,128.6,219.6,125.5,212.9,125.5z"/>
		</g>
		<g>
			<path class="st0" d="M308,215c-12.7,0-22.7-3.4-29.8-10.2c-7.2-6.8-11.1-16.4-11.7-28.8c-0.7-13.4,1-25.6,5.2-36.6
				c4.1-11,10.3-19.5,18.6-25.5c8.2-6,17.8-9,28.8-9c11.5,0,22,2.3,31.5,6.8l-3.7,24.5c-3.7-2.4-10.8-5.5-14.1-6.6
				c-3.4-1.1-7.1-1.6-11.3-1.6c-5.4,0-10.1,2-14.3,6.1c-4.1,4.1-7.2,9.6-9.3,16.7c-2.1,7.1-2.9,14.6-2.5,22.8c0.3,6.1,2,10.7,5,13.7
				c3,3.1,7.1,4.6,12.3,4.6c4.8,0,9.2-0.7,13.3-2.2c4-1.5,9.1-3.7,13.3-5.9l-3.9,25.8C325.6,213.1,317.3,215,308,215z"/>
		</g>
		<g>
			<path class="st0" d="M446.6,213.1H418l9.8-62c0.8-4.3,1.1-8.1,0.9-11.3c-0.4-7.8-4-11.7-10.9-11.7c-5.8,0-10.9,3.6-15.3,10.8
				c-4.4,7.2-7.6,17.3-9.6,30.2l-7,44h-28.6l23.6-147.8h28.6c-1.9,11.5-3.3,20.3-4.3,26.4c-1,6.1-3.2,15.9-6.6,29.3h0.8
				c3.7-4.9,7.8-8.8,12.5-11.7c4.7-2.9,10.2-4.4,16.5-4.4c8.7,0,15.6,2.6,20.7,7.9c5.1,5.3,7.9,12.9,8.4,22.7
				c0.2,4.6-0.2,10.3-1.3,17.1L446.6,213.1z"/>
		</g>
		<g>
			<path class="st0" d="M125.4,354.5c0.6,11.9-2.8,21-10.4,27.4c-7.5,6.4-18.4,9.6-32.4,9.6c-6.8,0-12.7-0.5-17.8-1.4
				c-5.1-0.9-12.2-4.5-16.7-6.7l3.2-20.5c10.2,5.7,18.4,7.4,28.7,7.4c5.1,0,9.2-1,12.3-3.1c3.1-2.1,4.6-4.9,4.4-8.4
				c-0.1-2.7-1.4-5.1-3.9-7.3c-2.5-2.2-6.7-4.9-12.9-8.2c-7.9-4.3-13.5-8.6-16.7-12.9c-3.3-4.3-5-9.3-5.4-15.1
				c-0.6-10.8,2.5-19.1,9.2-25c6.7-5.9,16.5-8.9,29.5-8.9c12.7,0,19.6,0.5,30.2,6.5l-3.5,22.9c-9.1-5.3-17.5-8-24.9-8
				c-3.6,0-6.5,0.8-8.6,2.4s-3.1,3.8-3,6.5c0.1,2.5,1.3,4.6,3.4,6.5c2.1,1.9,6.1,4.2,11.8,7.1c8,4,13.9,8.3,17.6,13
				C123,343.1,125,348.5,125.4,354.5z"/>
		</g>
		<g>
			<path class="st0" d="M188.2,368.4c4.1,0.1,11.8-2,17.8-4.4l-3.6,23c-6.8,3.4-13,4.5-22.8,4.5c-9.5,0-16.6-2-21.3-6
				c-4.7-4-7.2-10.2-7.7-18.5c-0.2-3.2,0-6.7,0.6-10.6l8.2-51.2h-14.6l2.2-14l18.2-8l11.4-22.4H195l-3.5,22.6h26.9l-3.6,21.8H188
				l-8.2,51.2c-0.3,1.9-0.4,3.6-0.3,5C179.7,366.1,182.6,368.3,188.2,368.4z"/>
		</g>
		<g>
			<path class="st0" d="M270.9,391.5c-13.3,0-23.8-3.6-31.5-10.7c-7.7-7.2-11.9-17.3-12.6-30.3c-0.7-13.1,1.3-25.1,6-35.9
				c4.7-10.8,11.3-19,19.9-24.7c8.6-5.7,18.6-8.5,29.9-8.5c11.2,0,20.1,2.6,26.6,7.7c6.5,5.2,10,12.2,10.5,21.2
				c0.6,11.8-4.2,21-14.4,27.4c-10.2,6.4-25.2,9.6-44.8,9.6h-4.8l-0.1,2l0.1,1.9c0.3,5.8,2.2,10.3,5.6,13.6c3.4,3.3,8.2,5,14.3,5
				c5.5,0,10.5-0.6,14.9-1.8c4.4-1.2,14.5-5,21.2-10.5l-4.1,25.7C297,388.8,284.7,391.5,270.9,391.5z M281.8,302
				c-5.6,0-10.7,2.5-15.4,7.6c-4.7,5.1-7.6,11.2-8.7,18.5h4.3c9.8,0,17.4-1.5,22.7-4.6s7.8-7.2,7.6-12.5
				C292,305,288.5,302,281.8,302z"/>
		</g>
		<g>
			<path class="st0" d="M496.8,391.5c-13.3,0-23.8-3.6-31.5-10.7c-7.7-7.2-11.9-17.3-12.6-30.3c-0.7-13.1,1.3-25.1,6-35.9
				c4.7-10.8,11.3-19,19.9-24.7c8.6-5.7,18.6-8.5,29.9-8.5c11.2,0,20.1,2.6,26.6,7.7c6.5,5.2,10,12.2,10.5,21.2
				c0.6,11.8-4.2,21-14.4,27.4c-10.2,6.4-25.2,9.6-44.8,9.6h-4.8l-0.1,2l0.1,1.9c0.3,5.8,2.2,10.3,5.6,13.6c3.4,3.3,8.2,5,14.3,5
				c5.5,0,10.5-0.6,14.9-1.8c4.4-1.2,14.5-5,21.2-10.5l-4.1,25.7C522.8,388.8,510.6,391.5,496.8,391.5z M507.7,302
				c-5.6,0-10.7,2.5-15.4,7.6c-4.7,5.1-7.6,11.2-8.7,18.5h4.3c9.8,0,17.4-1.5,22.7-4.6s7.8-7.2,7.6-12.5
				C517.8,305,514.3,302,507.7,302z"/>
		</g>
		<g>
			<path class="st0" d="M367.4,391.5c-9.3,0-16.8-3.4-22.5-10.2c-5.7-6.8-8.9-16.3-9.5-28.5c-0.7-12.4,1-24.3,4.9-35.6
				c3.9-11.3,9.4-20.1,16.5-26.4c7.1-6.3,15.1-9.4,24-9.4c5.2,0,9.7,1.2,13.6,3.5c3.9,2.4,5.7,6.4,9.4,12.1h0.8
				c0,0,2.5-15.8,3.4-21.2l5.4-34h28.8l-23.5,147.8h-22.1l1-13.8h-0.8c-4.2,5.5-8.7,9.5-13.5,12
				C378.6,390.3,373.3,391.5,367.4,391.5z M378.1,368.4c4.4,0,8.4-2,11.9-6c3.5-4,6.3-10,8.4-18c2.1-8,2.9-15.7,2.6-23.1
				c-0.3-5.1-1.7-9.1-4.2-12.2c-2.5-3-5.9-4.6-10-4.6c-4.3,0-8.3,2.3-11.9,6.8c-3.6,4.6-6.4,10.6-8.3,18.1
				c-1.9,7.5-2.7,14.9-2.3,22.2C364.8,362.8,369.4,368.4,378.1,368.4z"/>
		</g>
		<g>
			<path class="st0" d="M519,192c4.1,0.1,11.8-2,17.8-4.4l-3.6,23c-6.8,3.4-13,4.5-22.8,4.5c-9.5,0-16.6-2-21.3-6
				c-4.7-4-7.2-10.2-7.7-18.5c-0.2-3.2,0-6.7,0.6-10.6l8.2-51.2h-14.7l2.2-14l18.2-8l11.4-22.4h18.4l-3.5,22.6h26.9l-3.6,21.8h-26.8
				l-8.2,51.2c-0.3,1.9-0.4,3.6-0.3,5C510.5,189.6,513.4,191.8,519,192z"/>
		</g>
	</g>
	<g>
		<path class="st0" d="M262.7,34.2c0.1-2.8-3.8-3.5-4.8-0.9c-6.4,17.6-24.3,28.6-69.2,28.6c-29.9,0-61.5,21.3-71.1,45.6
			c-7.8,19.6-22.9,56.5-23.8,58.8c-0.3,0.7-1.8,1-1.8,0c0,0-7.1-48.9-7.1-48.9c-0.9-7.5-5.3-15.6-15.6-15.6l-15.5,0
			c-0.6,0-1,0.5-0.9,1.1l17.5,109.5c0.1,0.5,0.5,0.9,1,0.9h34.8c0.3,0,0.6-0.2,0.7-0.5c0,0,28.3-73.5,32.2-83.8
			c9.5-25.1,36.7-47.8,67.2-47.8C235.2,81.1,262.2,54.6,262.7,34.2z"/>
	</g>
</g>
</svg>
